<?xml version="1.0" encoding="UTF-8"?>
<svg xmlns="http://www.w3.org/2000/svg" xmlns:xlink="http://www.w3.org/1999/xlink" width="48px" height="43px" viewBox="0 0 48 43" version="1.1">
<g id="surface1">
<path style=" stroke:none;fill-rule:nonzero;fill:rgb(20.392157%,59.607843%,85.882353%);fill-opacity:1;" d="M 13.851562 0 C 12.554688 0.00390625 11.285156 0.742188 10.632812 1.871094 L 0.480469 19.605469 C -0.160156 20.738281 -0.160156 22.21875 0.480469 23.351562 L 10.632812 41.085938 C 11.285156 42.214844 12.554688 42.957031 13.851562 42.957031 L 34.148438 42.957031 C 35.445312 42.957031 36.714844 42.214844 37.367188 41.085938 L 47.519531 23.351562 C 48.160156 22.21875 48.160156 20.738281 47.519531 19.605469 L 37.367188 1.871094 C 36.714844 0.742188 35.445312 0.00390625 34.148438 0 Z M 14.035156 10.375 C 14.0625 10.371094 14.089844 10.371094 14.121094 10.375 L 17.621094 10.375 C 17.777344 10.378906 17.925781 10.46875 18.003906 10.605469 L 23.941406 21.25 C 23.972656 21.304688 23.992188 21.363281 24 21.421875 C 24.007812 21.363281 24.027344 21.304688 24.054688 21.25 L 29.980469 10.605469 C 30.0625 10.464844 30.21875 10.375 30.378906 10.375 L 33.878906 10.375 C 34.191406 10.378906 34.421875 10.769531 34.277344 11.046875 L 28.480469 21.480469 L 34.277344 31.898438 C 34.4375 32.175781 34.199219 32.585938 33.878906 32.582031 L 30.378906 32.582031 C 30.214844 32.582031 30.058594 32.484375 29.980469 32.339844 L 24.054688 21.695312 C 24.027344 21.640625 24.007812 21.582031 24 21.523438 C 23.992188 21.582031 23.972656 21.640625 23.941406 21.695312 L 18.003906 32.339844 C 17.929688 32.480469 17.777344 32.578125 17.621094 32.582031 L 14.121094 32.582031 C 13.800781 32.585938 13.5625 32.175781 13.722656 31.898438 L 19.519531 21.480469 L 13.722656 11.046875 C 13.582031 10.796875 13.753906 10.429688 14.035156 10.375 Z M 14.035156 10.375 "/>
</g>
</svg>
